<mxfile host="app.diagrams.net" agent="Mozilla/5.0 (Windows NT 10.0; Win64; x64) AppleWebKit/537.36 (KHTML, like Gecko) Chrome/128.0.0.0 Safari/537.36" version="24.7.10">
  <diagram name="Page-1" id="e7e014a7-5840-1c2e-5031-d8a46d1fe8dd">
    <mxGraphModel dx="1214" dy="589" grid="1" gridSize="10" guides="1" tooltips="1" connect="1" arrows="1" fold="1" page="1" pageScale="1" pageWidth="1169" pageHeight="826" background="none" math="0" shadow="0">
      <root>
        <mxCell id="0" />
        <mxCell id="1" parent="0" />
        <mxCell id="kZQ03gNKZHDd4sTlV5Zk-96" value="Kế toán" style="swimlane;whiteSpace=wrap" parent="1" vertex="1">
          <mxGeometry x="1080" y="90" width="280" height="650" as="geometry" />
        </mxCell>
        <mxCell id="kZQ03gNKZHDd4sTlV5Zk-97" value="" style="ellipse;shape=startState;fillColor=#000000;strokeColor=#ff0000;" parent="kZQ03gNKZHDd4sTlV5Zk-96" vertex="1">
          <mxGeometry x="100" y="40" width="30" height="30" as="geometry" />
        </mxCell>
        <mxCell id="kZQ03gNKZHDd4sTlV5Zk-98" value="" style="edgeStyle=elbowEdgeStyle;elbow=horizontal;verticalAlign=bottom;endArrow=open;endSize=8;strokeColor=#FF0000;endFill=1;rounded=0" parent="kZQ03gNKZHDd4sTlV5Zk-96" source="kZQ03gNKZHDd4sTlV5Zk-97" edge="1">
          <mxGeometry x="100" y="40" as="geometry">
            <mxPoint x="115.5" y="110" as="targetPoint" />
          </mxGeometry>
        </mxCell>
        <mxCell id="kZQ03gNKZHDd4sTlV5Zk-99" value="Lấy thông tin" style="rounded=1;whiteSpace=wrap;html=1;arcSize=40;fontColor=#000000;fillColor=#ffffc0;strokeColor=#ff0000;" parent="kZQ03gNKZHDd4sTlV5Zk-96" vertex="1">
          <mxGeometry x="60" y="112" width="120" height="40" as="geometry" />
        </mxCell>
        <mxCell id="kZQ03gNKZHDd4sTlV5Zk-100" value="Tính tiền nhà" style="rounded=1;whiteSpace=wrap;html=1;arcSize=40;fontColor=#000000;fillColor=#ffffc0;strokeColor=#ff0000;" parent="kZQ03gNKZHDd4sTlV5Zk-96" vertex="1">
          <mxGeometry x="55" y="160" width="120" height="40" as="geometry" />
        </mxCell>
        <mxCell id="kZQ03gNKZHDd4sTlV5Zk-104" value="" style="shape=line;html=1;strokeWidth=6;strokeColor=#ff0000;" parent="kZQ03gNKZHDd4sTlV5Zk-96" vertex="1">
          <mxGeometry x="90" y="290" width="60" height="10" as="geometry" />
        </mxCell>
        <mxCell id="kZQ03gNKZHDd4sTlV5Zk-122" value="Tạo phiếu thu" style="rounded=1;whiteSpace=wrap;html=1;arcSize=40;fontColor=#000000;fillColor=#ffffc0;strokeColor=#ff0000;" parent="kZQ03gNKZHDd4sTlV5Zk-96" vertex="1">
          <mxGeometry x="55" y="219" width="120" height="40" as="geometry" />
        </mxCell>
        <mxCell id="kZQ03gNKZHDd4sTlV5Zk-103" value="" style="edgeStyle=orthogonalEdgeStyle;html=1;verticalAlign=bottom;endArrow=open;endSize=8;strokeColor=#ff0000;rounded=0;exitX=0.5;exitY=1;exitDx=0;exitDy=0;" parent="kZQ03gNKZHDd4sTlV5Zk-96" source="kZQ03gNKZHDd4sTlV5Zk-100" target="kZQ03gNKZHDd4sTlV5Zk-122" edge="1">
          <mxGeometry relative="1" as="geometry">
            <mxPoint x="330" y="332" as="targetPoint" />
            <Array as="points" />
          </mxGeometry>
        </mxCell>
        <mxCell id="kZQ03gNKZHDd4sTlV5Zk-123" value="" style="edgeStyle=orthogonalEdgeStyle;html=1;verticalAlign=bottom;endArrow=open;endSize=8;strokeColor=#ff0000;rounded=0;entryX=0.411;entryY=0.303;entryDx=0;entryDy=0;exitX=0.5;exitY=1;exitDx=0;exitDy=0;entryPerimeter=0;" parent="kZQ03gNKZHDd4sTlV5Zk-96" source="kZQ03gNKZHDd4sTlV5Zk-122" target="kZQ03gNKZHDd4sTlV5Zk-104" edge="1">
          <mxGeometry relative="1" as="geometry">
            <mxPoint x="121" y="306" as="targetPoint" />
            <Array as="points" />
            <mxPoint x="120" y="270" as="sourcePoint" />
          </mxGeometry>
        </mxCell>
        <mxCell id="kZQ03gNKZHDd4sTlV5Zk-127" value="Lấy thông tin" style="rounded=1;whiteSpace=wrap;html=1;arcSize=40;fontColor=#000000;fillColor=#ffffc0;strokeColor=#ff0000;" parent="kZQ03gNKZHDd4sTlV5Zk-96" vertex="1">
          <mxGeometry x="50" y="380" width="120" height="40" as="geometry" />
        </mxCell>
        <mxCell id="kZQ03gNKZHDd4sTlV5Zk-126" value="" style="edgeStyle=orthogonalEdgeStyle;html=1;verticalAlign=bottom;endArrow=open;endSize=8;strokeColor=#ff0000;rounded=0;exitX=0.25;exitY=0.5;exitDx=0;exitDy=0;exitPerimeter=0;entryX=0.417;entryY=0;entryDx=0;entryDy=0;entryPerimeter=0;" parent="kZQ03gNKZHDd4sTlV5Zk-96" source="kZQ03gNKZHDd4sTlV5Zk-104" target="kZQ03gNKZHDd4sTlV5Zk-127" edge="1">
          <mxGeometry relative="1" as="geometry">
            <mxPoint x="100" y="360" as="targetPoint" />
            <Array as="points">
              <mxPoint x="100" y="295" />
            </Array>
            <mxPoint x="70" y="310" as="sourcePoint" />
          </mxGeometry>
        </mxCell>
        <mxCell id="kZQ03gNKZHDd4sTlV5Zk-131" value="Tạo báo cáo tài chính" style="rounded=1;whiteSpace=wrap;html=1;arcSize=40;fontColor=#000000;fillColor=#ffffc0;strokeColor=#ff0000;" parent="kZQ03gNKZHDd4sTlV5Zk-96" vertex="1">
          <mxGeometry x="40" y="480" width="120" height="40" as="geometry" />
        </mxCell>
        <mxCell id="kZQ03gNKZHDd4sTlV5Zk-107" value="Hệ thống" style="swimlane;whiteSpace=wrap" parent="1" vertex="1">
          <mxGeometry x="1360.5" y="90" width="281" height="650" as="geometry" />
        </mxCell>
        <mxCell id="kZQ03gNKZHDd4sTlV5Zk-108" value="Danh sách hợp đồng" style="rounded=1;whiteSpace=wrap;html=1;arcSize=40;fontColor=#000000;fillColor=#ffffc0;strokeColor=#ff0000;" parent="kZQ03gNKZHDd4sTlV5Zk-107" vertex="1">
          <mxGeometry x="59.5" y="113" width="120" height="40" as="geometry" />
        </mxCell>
        <mxCell id="kZQ03gNKZHDd4sTlV5Zk-109" value="Lưu phiếu thu" style="rounded=1;whiteSpace=wrap;html=1;arcSize=40;fontColor=#000000;fillColor=#ffffc0;strokeColor=#ff0000;" parent="kZQ03gNKZHDd4sTlV5Zk-107" vertex="1">
          <mxGeometry x="59.5" y="300" width="120" height="40" as="geometry" />
        </mxCell>
        <mxCell id="kZQ03gNKZHDd4sTlV5Zk-101" value="" style="ellipse;shape=endState;fillColor=#000000;strokeColor=#ff0000" parent="kZQ03gNKZHDd4sTlV5Zk-107" vertex="1">
          <mxGeometry x="125.5" y="590" width="30" height="32" as="geometry" />
        </mxCell>
        <mxCell id="kZQ03gNKZHDd4sTlV5Zk-137" value="" style="shape=line;html=1;strokeWidth=6;strokeColor=#ff0000;" parent="kZQ03gNKZHDd4sTlV5Zk-107" vertex="1">
          <mxGeometry x="89.5" y="550" width="60" height="10" as="geometry" />
        </mxCell>
        <mxCell id="kZQ03gNKZHDd4sTlV5Zk-138" value="" style="edgeStyle=orthogonalEdgeStyle;html=1;verticalAlign=bottom;endArrow=open;endSize=8;strokeColor=#ff0000;rounded=0;exitX=0.5;exitY=1;exitDx=0;exitDy=0;entryX=0.334;entryY=0.245;entryDx=0;entryDy=0;entryPerimeter=0;" parent="kZQ03gNKZHDd4sTlV5Zk-107" edge="1">
          <mxGeometry relative="1" as="geometry">
            <mxPoint x="140.3900000000001" y="590" as="targetPoint" />
            <Array as="points">
              <mxPoint x="140.3900000000001" y="578" />
            </Array>
            <mxPoint x="140.3900000000001" y="558" as="sourcePoint" />
          </mxGeometry>
        </mxCell>
        <mxCell id="kZQ03gNKZHDd4sTlV5Zk-110" value="" style="edgeStyle=orthogonalEdgeStyle;html=1;verticalAlign=bottom;endArrow=open;endSize=8;strokeColor=#ff0000;rounded=0;entryX=0;entryY=0.5;entryDx=0;entryDy=0;" parent="1" source="kZQ03gNKZHDd4sTlV5Zk-99" target="kZQ03gNKZHDd4sTlV5Zk-108" edge="1">
          <mxGeometry relative="1" as="geometry">
            <mxPoint x="1415.5" y="222" as="targetPoint" />
          </mxGeometry>
        </mxCell>
        <mxCell id="kZQ03gNKZHDd4sTlV5Zk-111" value="" style="edgeStyle=orthogonalEdgeStyle;html=1;verticalAlign=bottom;endArrow=open;endSize=8;strokeColor=#ff0000;rounded=0;exitX=0.5;exitY=1;exitDx=0;exitDy=0;entryX=1;entryY=0.5;entryDx=0;entryDy=0;" parent="1" source="kZQ03gNKZHDd4sTlV5Zk-108" target="kZQ03gNKZHDd4sTlV5Zk-100" edge="1">
          <mxGeometry relative="1" as="geometry">
            <mxPoint x="1390" y="290" as="targetPoint" />
            <Array as="points">
              <mxPoint x="1480" y="270" />
              <mxPoint x="1255" y="270" />
            </Array>
            <mxPoint x="1460" y="270" as="sourcePoint" />
          </mxGeometry>
        </mxCell>
        <mxCell id="kZQ03gNKZHDd4sTlV5Zk-112" value="" style="edgeStyle=orthogonalEdgeStyle;html=1;verticalAlign=bottom;endArrow=open;endSize=8;strokeColor=#ff0000;rounded=0;exitX=0.901;exitY=0.542;exitDx=0;exitDy=0;exitPerimeter=0;entryX=0;entryY=0.5;entryDx=0;entryDy=0;" parent="1" source="kZQ03gNKZHDd4sTlV5Zk-104" target="kZQ03gNKZHDd4sTlV5Zk-109" edge="1">
          <mxGeometry relative="1" as="geometry">
            <mxPoint x="1219.8200000000002" y="463" as="targetPoint" />
            <Array as="points">
              <mxPoint x="1224" y="410" />
            </Array>
            <mxPoint x="1219.8200000000002" y="400" as="sourcePoint" />
          </mxGeometry>
        </mxCell>
        <mxCell id="kZQ03gNKZHDd4sTlV5Zk-113" value="" style="edgeStyle=orthogonalEdgeStyle;html=1;verticalAlign=bottom;endArrow=open;endSize=8;strokeColor=#ff0000;rounded=0;exitX=0.5;exitY=1;exitDx=0;exitDy=0;entryX=0.855;entryY=0.267;entryDx=0;entryDy=0;entryPerimeter=0;" parent="1" source="kZQ03gNKZHDd4sTlV5Zk-124" target="kZQ03gNKZHDd4sTlV5Zk-137" edge="1">
          <mxGeometry relative="1" as="geometry">
            <mxPoint x="1501" y="640" as="targetPoint" />
            <Array as="points">
              <mxPoint x="1740" y="620" />
              <mxPoint x="1501" y="620" />
            </Array>
            <mxPoint x="1430" y="490" as="sourcePoint" />
          </mxGeometry>
        </mxCell>
        <mxCell id="kZQ03gNKZHDd4sTlV5Zk-114" value="Khách hàng" style="swimlane;whiteSpace=wrap" parent="1" vertex="1">
          <mxGeometry x="1641.5" y="90" width="280" height="650" as="geometry" />
        </mxCell>
        <mxCell id="kZQ03gNKZHDd4sTlV5Zk-117" value="Nhận phiếu thu" style="rounded=1;whiteSpace=wrap;html=1;arcSize=40;fontColor=#000000;fillColor=#ffffc0;strokeColor=#ff0000;" parent="kZQ03gNKZHDd4sTlV5Zk-114" vertex="1">
          <mxGeometry x="38.5" y="340" width="120" height="40" as="geometry" />
        </mxCell>
        <mxCell id="kZQ03gNKZHDd4sTlV5Zk-124" value="Thanh toán hóa đơn" style="rounded=1;whiteSpace=wrap;html=1;arcSize=40;fontColor=#000000;fillColor=#ffffc0;strokeColor=#ff0000;" parent="kZQ03gNKZHDd4sTlV5Zk-114" vertex="1">
          <mxGeometry x="38.5" y="400" width="120" height="40" as="geometry" />
        </mxCell>
        <mxCell id="kZQ03gNKZHDd4sTlV5Zk-125" value="" style="edgeStyle=orthogonalEdgeStyle;html=1;verticalAlign=bottom;endArrow=open;endSize=8;strokeColor=#ff0000;rounded=0;entryX=0.5;entryY=0;entryDx=0;entryDy=0;exitX=0.5;exitY=1;exitDx=0;exitDy=0;" parent="kZQ03gNKZHDd4sTlV5Zk-114" source="kZQ03gNKZHDd4sTlV5Zk-117" target="kZQ03gNKZHDd4sTlV5Zk-124" edge="1">
          <mxGeometry relative="1" as="geometry">
            <mxPoint x="109.5" y="436" as="targetPoint" />
            <Array as="points" />
            <mxPoint x="108.5" y="400" as="sourcePoint" />
          </mxGeometry>
        </mxCell>
        <mxCell id="kZQ03gNKZHDd4sTlV5Zk-106" value="" style="edgeStyle=orthogonalEdgeStyle;html=1;verticalAlign=bottom;endArrow=open;endSize=8;strokeColor=#ff0000;rounded=0;exitX=0.55;exitY=0.7;exitDx=0;exitDy=0;exitPerimeter=0;entryX=0;entryY=0.5;entryDx=0;entryDy=0;" parent="1" source="kZQ03gNKZHDd4sTlV5Zk-104" target="kZQ03gNKZHDd4sTlV5Zk-117" edge="1">
          <mxGeometry relative="1" as="geometry">
            <mxPoint x="1198" y="460" as="targetPoint" />
            <Array as="points">
              <mxPoint x="1199" y="387" />
              <mxPoint x="1199" y="450" />
            </Array>
            <mxPoint x="1210" y="420" as="sourcePoint" />
          </mxGeometry>
        </mxCell>
        <mxCell id="kZQ03gNKZHDd4sTlV5Zk-128" value="Danh sách phiếu thu" style="rounded=1;whiteSpace=wrap;html=1;arcSize=40;fontColor=#000000;fillColor=#ffffc0;strokeColor=#ff0000;" parent="1" vertex="1">
          <mxGeometry x="1430" y="480" width="120" height="40" as="geometry" />
        </mxCell>
        <mxCell id="kZQ03gNKZHDd4sTlV5Zk-130" value="" style="edgeStyle=orthogonalEdgeStyle;html=1;verticalAlign=bottom;endArrow=open;endSize=8;strokeColor=#ff0000;rounded=0;entryX=0;entryY=0.5;entryDx=0;entryDy=0;exitX=1;exitY=0.5;exitDx=0;exitDy=0;" parent="1" source="kZQ03gNKZHDd4sTlV5Zk-127" target="kZQ03gNKZHDd4sTlV5Zk-128" edge="1">
          <mxGeometry relative="1" as="geometry">
            <mxPoint x="1300" y="524" as="targetPoint" />
            <Array as="points" />
            <mxPoint x="1300" y="490" as="sourcePoint" />
          </mxGeometry>
        </mxCell>
        <mxCell id="kZQ03gNKZHDd4sTlV5Zk-132" value="Lưu báo cáo" style="rounded=1;whiteSpace=wrap;html=1;arcSize=40;fontColor=#000000;fillColor=#ffffc0;strokeColor=#ff0000;" parent="1" vertex="1">
          <mxGeometry x="1410" y="570" width="120" height="40" as="geometry" />
        </mxCell>
        <mxCell id="kZQ03gNKZHDd4sTlV5Zk-133" value="" style="edgeStyle=orthogonalEdgeStyle;html=1;verticalAlign=bottom;endArrow=open;endSize=8;strokeColor=#ff0000;rounded=0;exitX=0.5;exitY=1;exitDx=0;exitDy=0;entryX=0.5;entryY=0;entryDx=0;entryDy=0;" parent="1" source="kZQ03gNKZHDd4sTlV5Zk-128" target="kZQ03gNKZHDd4sTlV5Zk-131" edge="1">
          <mxGeometry relative="1" as="geometry">
            <mxPoint x="1490" y="570" as="targetPoint" />
            <Array as="points">
              <mxPoint x="1490" y="540" />
              <mxPoint x="1180" y="540" />
            </Array>
            <mxPoint x="1460" y="530" as="sourcePoint" />
          </mxGeometry>
        </mxCell>
        <mxCell id="kZQ03gNKZHDd4sTlV5Zk-135" value="" style="edgeStyle=orthogonalEdgeStyle;html=1;verticalAlign=bottom;endArrow=open;endSize=8;strokeColor=#ff0000;rounded=0;exitX=1;exitY=0.5;exitDx=0;exitDy=0;entryX=0;entryY=0.5;entryDx=0;entryDy=0;" parent="1" source="kZQ03gNKZHDd4sTlV5Zk-131" target="kZQ03gNKZHDd4sTlV5Zk-132" edge="1">
          <mxGeometry relative="1" as="geometry">
            <mxPoint x="1130" y="580" as="targetPoint" />
            <Array as="points">
              <mxPoint x="1330" y="590" />
              <mxPoint x="1330" y="590" />
            </Array>
            <mxPoint x="1300" y="580" as="sourcePoint" />
          </mxGeometry>
        </mxCell>
        <mxCell id="kZQ03gNKZHDd4sTlV5Zk-136" value="" style="edgeStyle=orthogonalEdgeStyle;html=1;verticalAlign=bottom;endArrow=open;endSize=8;strokeColor=#ff0000;rounded=0;exitX=0.5;exitY=1;exitDx=0;exitDy=0;entryX=0.334;entryY=0.245;entryDx=0;entryDy=0;entryPerimeter=0;" parent="1" source="kZQ03gNKZHDd4sTlV5Zk-132" target="kZQ03gNKZHDd4sTlV5Zk-137" edge="1">
          <mxGeometry relative="1" as="geometry">
            <mxPoint x="1470" y="640" as="targetPoint" />
            <Array as="points">
              <mxPoint x="1470" y="630" />
            </Array>
            <mxPoint x="1450" y="650" as="sourcePoint" />
          </mxGeometry>
        </mxCell>
      </root>
    </mxGraphModel>
  </diagram>
</mxfile>
